<svg xmlns="http://www.w3.org/2000/svg" viewBox="0 0 24 24" width="24" height="24">
  <!-- MyBarPool mark: the TeamChip helmet (DESIGN § 9) in brand purple and green. -->
  <path fill="#9945FF" d="M12 2.5C6.8 2.5 3 6.6 3 11.6v4.8c0 .9.7 1.6 1.6 1.6h2.8v1.6c0 1.1.9 1.9 1.9 1.9h4.3c.9 0 1.6-.6 1.8-1.4l.9-3.1H15c-.9 0-1.6-.7-1.6-1.6v-3.2c0-1.2 1-2.2 2.2-2.2H21C20.9 5.8 17 2.5 12 2.5z"/>
  <path d="M14.6 12.6h8M14.6 15.6h7.2M19.4 10.2v5.4" stroke="#14F195" stroke-width="1.6" stroke-linecap="round" fill="none"/>
  <circle cx="9.4" cy="12.6" r="1.3" fill="#14F195"/>
</svg>
